<svg width="17" height="17" viewBox="0 0 17 17" fill="none" xmlns="http://www.w3.org/2000/svg">
<path d="M8.19702 10.9897C6.80363 10.6006 5.55415 10.3016 4.16666 10.877V14.6664C4.16666 14.9425 3.9428 15.1664 3.66666 15.1664C3.39051 15.1664 3.16666 14.9425 3.16666 14.6664V3.43248C3.16666 2.99723 3.41441 2.562 3.86162 2.38464C5.51915 1.72726 7.00994 2.08591 8.34893 2.45692C8.43675 2.48125 8.5238 2.50557 8.61016 2.5297C9.87557 2.88323 10.9934 3.19554 12.2095 2.90086C12.9245 2.72758 13.8333 3.19562 13.8333 4.09117V10.141C13.8333 10.5763 13.5856 11.0115 13.1384 11.1889C11.3824 11.8853 9.80248 11.441 8.39759 11.0459C8.33033 11.027 8.26347 11.0082 8.19702 10.9897Z" fill="#2F72E2"/>
</svg>
